<svg width="756" height="156" viewBox="0 0 756 156" fill="none" xmlns="http://www.w3.org/2000/svg">
<g clip-path="url(#clip0_144_82)">
<path opacity="0.8" d="M-0.5 -0.5H472.5V29C472.5 99.4163 415.416 156.5 345 156.5H-0.5V-0.5Z" stroke="#464965"/>
<path opacity="0.9" d="M-0.5 -0.5H456.5V29C456.5 99.4163 399.416 156.5 329 156.5H-0.5V-0.5Z" stroke="#464965"/>
<path d="M-0.5 -0.5H444.5V29C444.5 99.4163 387.416 156.5 317 156.5H-0.5V-0.5Z" stroke="#464965"/>
<path opacity="0.7" d="M-0.5 -0.5H492.5V29C492.5 99.4163 435.416 156.5 365 156.5H-0.5V-0.5Z" stroke="#464965"/>
<path opacity="0.6" d="M-0.5 -0.5H517.5V29C517.5 99.4163 460.416 156.5 390 156.5H-0.5V-0.5Z" stroke="#464965"/>
<path opacity="0.5" d="M-0.5 -0.5H548.5V29C548.5 99.4163 491.416 156.5 421 156.5H-0.5V-0.5Z" stroke="#464965"/>
<path opacity="0.4" d="M-0.5 -0.5H587.5V29C587.5 99.4163 530.416 156.5 460 156.5H-0.5V-0.5Z" stroke="#464965"/>
<path opacity="0.3" d="M-0.5 -0.5H635.5V29C635.5 99.4163 578.416 156.5 508 156.5H-0.5V-0.5Z" stroke="#464965"/>
<path opacity="0.2" d="M-0.5 -0.5H692.5V29C692.5 99.4163 635.416 156.5 565 156.5H-0.5V-0.5Z" stroke="#464965"/>
<path opacity="0.1" d="M-0.5 -0.5H756.5V29C756.5 99.4163 699.416 156.5 629 156.5H-0.5V-0.5Z" stroke="#464965"/>
<path d="M-0.5 -0.5H756.5V156.5H-0.5V-0.5Z" stroke="#464965"/>
</g>
<defs>
<clipPath id="clip0_144_82">
<rect width="756" height="156" fill="white"/>
</clipPath>
</defs>
</svg>
