<svg width="108" height="110" viewBox="0 0 108 110" fill="none" xmlns="http://www.w3.org/2000/svg">
<rect width="8" height="110" transform="matrix(-1 -8.74228e-08 -8.74228e-08 1 108 0)" fill="#464965"/>
<rect opacity="0.9" width="8" height="110" transform="matrix(-1 -8.74228e-08 -8.74228e-08 1 92 0)" fill="#464965"/>
<rect opacity="0.8" width="7" height="110" transform="matrix(-1 -8.74228e-08 -8.74228e-08 1 76 0)" fill="#464965"/>
<rect opacity="0.7" width="6" height="110" transform="matrix(-1 -8.74228e-08 -8.74228e-08 1 61 0)" fill="#464965"/>
<rect opacity="0.6" width="5" height="110" transform="matrix(-1 -8.74228e-08 -8.74228e-08 1 47 0)" fill="#464965"/>
<rect opacity="0.5" width="4" height="110" transform="matrix(-1 -8.74228e-08 -8.74228e-08 1 34 0)" fill="#464965"/>
<rect opacity="0.4" width="3" height="110" transform="matrix(-1 -8.74228e-08 -8.74228e-08 1 22 0)" fill="#464965"/>
<rect opacity="0.3" width="2" height="110" transform="matrix(-1 -8.74228e-08 -8.74228e-08 1 11 0)" fill="#464965"/>
<rect opacity="0.2" width="1" height="110" transform="matrix(-1 -8.74228e-08 -8.74228e-08 1 1 0)" fill="#464965"/>
</svg>
