<svg width="474" height="189" viewBox="0 0 474 189" fill="none" xmlns="http://www.w3.org/2000/svg">
<path d="M50.76 187V187.5H51.26V187H50.76ZM50.76 6.77599H51.26V6.4872L51.0099 6.34289L50.76 6.77599ZM0.84 6.77599L0.597179 6.33891L0.34 6.48178V6.77599H0.84ZM0.84 187H0.34V187.5H0.84V187ZM12.36 187V187.5H12.86V187H12.36ZM12.36 12.664L12.1364 12.2168L11.86 12.355V12.664H12.36ZM20.04 10.872H20.54V10.3245L19.9947 10.374L20.04 10.872ZM20.04 187H19.54V187.5H20.04V187ZM31.56 187V187.5H32.06V187H31.56ZM31.56 10.872L31.6053 10.374L31.06 10.3245V10.872H31.56ZM39.24 12.664H39.74V12.355L39.4636 12.2168L39.24 12.664ZM39.24 187H38.74V187.5H39.24V187ZM51.26 187V6.77599H50.26V187H51.26ZM51.0099 6.34289C44.2468 2.44114 35.4431 0.899994 25.928 0.899994V1.89999C35.3569 1.89999 43.9612 3.43084 50.5101 7.20908L51.0099 6.34289ZM25.928 0.899994C16.4102 0.899994 7.61151 2.44206 0.597179 6.33891L1.08282 7.21306C7.8925 3.42992 16.5018 1.89999 25.928 1.89999V0.899994ZM0.34 6.77599V187H1.34V6.77599H0.34ZM0.84 187.5H12.36V186.5H0.84V187.5ZM12.86 187V12.664H11.86V187H12.86ZM12.5836 13.1112C14.5448 12.1306 17.2834 11.6246 20.0853 11.3699L19.9947 10.374C17.1646 10.6313 14.2712 11.1494 12.1364 12.2168L12.5836 13.1112ZM19.54 10.872V187H20.54V10.872H19.54ZM20.04 187.5H31.56V186.5H20.04V187.5ZM32.06 187V10.872H31.06V187H32.06ZM31.5147 11.3699C34.3166 11.6246 37.0552 12.1306 39.0164 13.1112L39.4636 12.2168C37.3288 11.1494 34.4354 10.6313 31.6053 10.374L31.5147 11.3699ZM38.74 12.664V187H39.74V12.664H38.74ZM39.24 187.5H50.76V186.5H39.24V187.5ZM89.06 182.904L89.3922 183.278L89.56 183.129V182.904H89.06ZM89.06 6.77599H89.56V6.55145L89.3922 6.40228L89.06 6.77599ZM58.34 6.77599L58.0078 6.40228L57.84 6.55145V6.77599H58.34ZM58.34 182.904H57.84V183.129L58.0078 183.278L58.34 182.904ZM77.54 177.528L77.7972 177.957L78.04 177.811V177.528H77.54ZM69.86 177.528H69.36V177.811L69.6028 177.957L69.86 177.528ZM69.86 12.152L69.6028 11.7232L69.36 11.8689V12.152H69.86ZM77.54 12.152H78.04V11.8689L77.7972 11.7232L77.54 12.152ZM89.56 182.904V6.77599H88.56V182.904H89.56ZM89.3922 6.40228C84.6665 2.20169 79.1583 0.899994 73.7 0.899994V1.89999C78.9937 1.89999 84.2375 3.15829 88.7278 7.14969L89.3922 6.40228ZM73.7 0.899994C68.2417 0.899994 62.7335 2.20169 58.0078 6.40228L58.6722 7.14969C63.1625 3.15829 68.4063 1.89999 73.7 1.89999V0.899994ZM57.84 6.77599V182.904H58.84V6.77599H57.84ZM58.0078 183.278C62.7335 187.478 68.2417 188.78 73.7 188.78V187.78C68.4063 187.78 63.1625 186.522 58.6722 182.53L58.0078 183.278ZM73.7 188.78C79.1583 188.78 84.6665 187.478 89.3922 183.278L88.7278 182.53C84.2375 186.522 78.9937 187.78 73.7 187.78V188.78ZM77.2828 177.099C76.0879 177.816 75.1545 178.052 73.7 178.052V179.052C75.3175 179.052 76.4321 178.776 77.7972 177.957L77.2828 177.099ZM73.7 178.052C72.2455 178.052 71.3121 177.816 70.1172 177.099L69.6028 177.957C70.9679 178.776 72.0825 179.052 73.7 179.052V178.052ZM70.36 177.528V12.152H69.36V177.528H70.36ZM70.1172 12.5807C71.3121 11.8638 72.2455 11.628 73.7 11.628V10.628C72.0825 10.628 70.9679 10.9041 69.6028 11.7232L70.1172 12.5807ZM73.7 11.628C75.1545 11.628 76.0879 11.8638 77.2828 12.5807L77.7972 11.7232C76.4321 10.9041 75.3175 10.628 73.7 10.628V11.628ZM77.04 12.152V177.528H78.04V12.152H77.04ZM127.56 187V187.5H128.06V187H127.56ZM127.56 97.4H128.06V97.2081L127.932 97.0655L127.56 97.4ZM118.856 91.768L118.709 91.2901L117.156 91.768L118.709 92.2459L118.856 91.768ZM127.304 86.136L127.694 86.4483L127.804 86.3114V86.136H127.304ZM127.304 11.128H127.804V10.9741L127.717 10.8468L127.304 11.128ZM96.84 2.67999V2.17999H96.34V2.67999H96.84ZM96.84 187H96.34V187.5H96.84V187ZM108.36 187V187.5H108.86V187H108.36ZM108.36 96.632V96.132H107.86V96.632H108.36ZM116.04 99.96H116.54V99.7998L116.447 99.6694L116.04 99.96ZM116.04 187H115.54V187.5H116.04V187ZM115.784 83.576L116.191 83.8666L116.284 83.7362V83.576H115.784ZM108.36 86.904H107.86V87.404H108.36V86.904ZM108.36 12.408V11.908H107.86V12.408H108.36ZM115.784 15.224H116.284V15.0638L116.191 14.9334L115.784 15.224ZM128.06 187V97.4H127.06V187H128.06ZM127.932 97.0655C125.572 94.4433 122.424 92.3426 119.003 91.2901L118.709 92.2459C121.944 93.2413 124.94 95.2367 127.188 97.7345L127.932 97.0655ZM119.003 92.2459C122.421 91.1943 125.58 89.0917 127.694 86.4483L126.914 85.8236C124.932 88.3003 121.947 90.2937 118.709 91.2901L119.003 92.2459ZM127.804 86.136V11.128H126.804V86.136H127.804ZM127.717 10.8468C123.235 4.25471 115.869 2.17999 108.872 2.17999V3.17999C115.699 3.17999 122.669 5.20128 126.891 11.4091L127.717 10.8468ZM108.872 2.17999H96.84V3.17999H108.872V2.17999ZM96.34 2.67999V187H97.34V2.67999H96.34ZM96.84 187.5H108.36V186.5H96.84V187.5ZM108.86 187V96.632H107.86V187H108.86ZM108.36 97.132H108.872V96.132H108.36V97.132ZM108.872 97.132C111.799 97.132 114.456 98.6031 115.633 100.251L116.447 99.6694C115.064 97.7329 112.089 96.132 108.872 96.132V97.132ZM115.54 99.96V187H116.54V99.96H115.54ZM116.04 187.5H127.56V186.5H116.04V187.5ZM115.377 83.2854C114.191 84.9454 111.783 86.404 108.872 86.404V87.404C112.105 87.404 114.817 85.7906 116.191 83.8666L115.377 83.2854ZM108.872 86.404H108.36V87.404H108.872V86.404ZM108.86 86.904V12.408H107.86V86.904H108.86ZM108.36 12.908H108.872V11.908H108.36V12.908ZM108.872 12.908C111.856 12.908 114.227 13.9041 115.377 15.5146L116.191 14.9334C114.781 12.9599 112.032 11.908 108.872 11.908V12.908ZM115.284 15.224V83.576H116.284V15.224H115.284ZM165.81 187V187.5H166.31V187H165.81ZM165.81 6.77599H166.31V6.55145L166.142 6.40228L165.81 6.77599ZM135.09 6.77599L134.758 6.40228L134.59 6.55145V6.77599H135.09ZM135.09 187H134.59V187.5H135.09V187ZM146.61 187V187.5H147.11V187H146.61ZM146.61 97.656V97.156H146.11V97.656H146.61ZM154.29 97.656H154.79V97.156H154.29V97.656ZM154.29 187H153.79V187.5H154.29V187ZM154.29 86.648V87.148H154.79V86.648H154.29ZM146.61 86.648H146.11V87.148H146.61V86.648ZM146.61 12.152L146.353 11.7232L146.11 11.8689V12.152H146.61ZM154.29 12.152H154.79V11.8689L154.547 11.7232L154.29 12.152ZM166.31 187V6.77599H165.31V187H166.31ZM166.142 6.40228C161.417 2.20169 155.908 0.899994 150.45 0.899994V1.89999C155.744 1.89999 160.987 3.15829 165.478 7.14969L166.142 6.40228ZM150.45 0.899994C144.992 0.899994 139.483 2.20169 134.758 6.40228L135.422 7.14969C139.913 3.15829 145.156 1.89999 150.45 1.89999V0.899994ZM134.59 6.77599V187H135.59V6.77599H134.59ZM135.09 187.5H146.61V186.5H135.09V187.5ZM147.11 187V97.656H146.11V187H147.11ZM146.61 98.156H154.29V97.156H146.61V98.156ZM153.79 97.656V187H154.79V97.656H153.79ZM154.29 187.5H165.81V186.5H154.29V187.5ZM154.29 86.148H146.61V87.148H154.29V86.148ZM147.11 86.648V12.152H146.11V86.648H147.11ZM146.867 12.5807C148.062 11.8638 148.995 11.628 150.45 11.628V10.628C148.833 10.628 147.718 10.9041 146.353 11.7232L146.867 12.5807ZM150.45 11.628C151.904 11.628 152.838 11.8638 154.033 12.5807L154.547 11.7232C153.182 10.9041 152.068 10.628 150.45 10.628V11.628ZM153.79 12.152V86.648H154.79V12.152H153.79ZM196.63 187V187.5H197.13V187H196.63ZM196.63 177.272H197.13V176.772H196.63V177.272ZM185.11 177.272H184.61V177.772H185.11V177.272ZM185.11 2.67999H185.61V2.17999H185.11V2.67999ZM173.59 2.67999V2.17999H173.09V2.67999H173.59ZM173.59 187H173.09V187.5H173.59V187ZM197.13 187V177.272H196.13V187H197.13ZM196.63 176.772H185.11V177.772H196.63V176.772ZM185.61 177.272V2.67999H184.61V177.272H185.61ZM185.11 2.17999H173.59V3.17999H185.11V2.17999ZM173.09 2.67999V187H174.09V2.67999H173.09ZM173.59 187.5H196.63V186.5H173.59V187.5ZM251.81 182.904L252.142 183.278L252.31 183.129V182.904H251.81ZM251.81 117.368H252.31V116.868H251.81V117.368ZM240.29 117.368V116.868H239.79V117.368H240.29ZM240.29 177.528L240.547 177.957L240.79 177.811V177.528H240.29ZM232.61 177.528H232.11V177.811L232.353 177.957L232.61 177.528ZM232.61 97.656V97.156H232.11V97.656H232.61ZM246.69 97.656V98.156H247.19V97.656H246.69ZM246.69 86.648H247.19V86.148H246.69V86.648ZM232.61 86.648H232.11V87.148H232.61V86.648ZM232.61 12.152L232.353 11.7232L232.11 11.8689V12.152H232.61ZM240.29 12.152H240.79V11.8689L240.547 11.7232L240.29 12.152ZM240.29 72.312H239.79V72.812H240.29V72.312ZM251.81 72.312V72.812H252.31V72.312H251.81ZM251.81 6.77599H252.31V6.55145L252.142 6.40228L251.81 6.77599ZM221.09 6.77599L220.758 6.40228L220.59 6.55145V6.77599H221.09ZM221.09 182.904H220.59V183.129L220.758 183.278L221.09 182.904ZM252.31 182.904V117.368H251.31V182.904H252.31ZM251.81 116.868H240.29V117.868H251.81V116.868ZM239.79 117.368V177.528H240.79V117.368H239.79ZM240.033 177.099C238.838 177.816 237.904 178.052 236.45 178.052V179.052C238.068 179.052 239.182 178.776 240.547 177.957L240.033 177.099ZM236.45 178.052C234.995 178.052 234.062 177.816 232.867 177.099L232.353 177.957C233.718 178.776 234.833 179.052 236.45 179.052V178.052ZM233.11 177.528V97.656H232.11V177.528H233.11ZM232.61 98.156H246.69V97.156H232.61V98.156ZM247.19 97.656V86.648H246.19V97.656H247.19ZM246.69 86.148H232.61V87.148H246.69V86.148ZM233.11 86.648V12.152H232.11V86.648H233.11ZM232.867 12.5807C234.062 11.8638 234.995 11.628 236.45 11.628V10.628C234.833 10.628 233.718 10.9041 232.353 11.7232L232.867 12.5807ZM236.45 11.628C237.904 11.628 238.838 11.8638 240.033 12.5807L240.547 11.7232C239.182 10.9041 238.068 10.628 236.45 10.628V11.628ZM239.79 12.152V72.312H240.79V12.152H239.79ZM240.29 72.812H251.81V71.812H240.29V72.812ZM252.31 72.312V6.77599H251.31V72.312H252.31ZM252.142 6.40228C247.417 2.20169 241.908 0.899994 236.45 0.899994V1.89999C241.744 1.89999 246.987 3.15829 251.478 7.14969L252.142 6.40228ZM236.45 0.899994C230.992 0.899994 225.483 2.20169 220.758 6.40228L221.422 7.14969C225.913 3.15829 231.156 1.89999 236.45 1.89999V0.899994ZM220.59 6.77599V182.904H221.59V6.77599H220.59ZM220.758 183.278C225.483 187.478 230.992 188.78 236.45 188.78V187.78C231.156 187.78 225.913 186.522 221.422 182.53L220.758 183.278ZM236.45 188.78C241.908 188.78 247.417 187.478 252.142 183.278L251.478 182.53C246.987 186.522 241.744 187.78 236.45 187.78V188.78ZM290.31 187V187.5H290.81V187H290.31ZM290.31 6.77599H290.81V6.55145L290.642 6.40228L290.31 6.77599ZM259.59 6.77599L259.258 6.40228L259.09 6.55145V6.77599H259.59ZM259.59 187H259.09V187.5H259.59V187ZM271.11 187V187.5H271.61V187H271.11ZM271.11 12.152L270.853 11.7232L270.61 11.8689V12.152H271.11ZM278.79 12.152H279.29V11.8689L279.047 11.7232L278.79 12.152ZM278.79 187H278.29V187.5H278.79V187ZM290.81 187V6.77599H289.81V187H290.81ZM290.642 6.40228C285.917 2.20169 280.408 0.899994 274.95 0.899994V1.89999C280.244 1.89999 285.487 3.15829 289.978 7.14969L290.642 6.40228ZM274.95 0.899994C269.492 0.899994 263.983 2.20169 259.258 6.40228L259.922 7.14969C264.413 3.15829 269.656 1.89999 274.95 1.89999V0.899994ZM259.09 6.77599V187H260.09V6.77599H259.09ZM259.59 187.5H271.11V186.5H259.59V187.5ZM271.61 187V12.152H270.61V187H271.61ZM271.367 12.5807C272.562 11.8638 273.496 11.628 274.95 11.628V10.628C273.332 10.628 272.218 10.9041 270.853 11.7232L271.367 12.5807ZM274.95 11.628C276.405 11.628 277.338 11.8638 278.533 12.5807L279.047 11.7232C277.682 10.9041 276.568 10.628 274.95 10.628V11.628ZM278.29 12.152V187H279.29V12.152H278.29ZM278.79 187.5H290.31V186.5H278.79V187.5ZM323.178 12.408V12.908H323.678V12.408H323.178ZM323.178 2.67999H323.678V2.17999H323.178V2.67999ZM295.018 2.67999V2.17999H294.518V2.67999H295.018ZM295.018 12.408H294.518V12.908H295.018V12.408ZM303.21 12.408H303.71V11.908H303.21V12.408ZM303.21 187H302.71V187.5H303.21V187ZM314.73 187V187.5H315.23V187H314.73ZM314.73 12.408V11.908H314.23V12.408H314.73ZM323.678 12.408V2.67999H322.678V12.408H323.678ZM323.178 2.17999H295.018V3.17999H323.178V2.17999ZM294.518 2.67999V12.408H295.518V2.67999H294.518ZM295.018 12.908H303.21V11.908H295.018V12.908ZM302.71 12.408V187H303.71V12.408H302.71ZM303.21 187.5H314.73V186.5H303.21V187.5ZM315.23 187V12.408H314.23V187H315.23ZM314.73 12.908H323.178V11.908H314.73V12.908ZM358.31 187V187.5H358.81V187H358.31ZM358.31 97.4H358.81V97.2081L358.682 97.0655L358.31 97.4ZM349.606 91.768L349.459 91.2901L347.906 91.768L349.459 92.2459L349.606 91.768ZM358.054 86.136L358.444 86.4483L358.554 86.3114V86.136H358.054ZM358.054 11.128H358.554V10.9741L358.467 10.8468L358.054 11.128ZM327.59 2.67999V2.17999H327.09V2.67999H327.59ZM327.59 187H327.09V187.5H327.59V187ZM339.11 187V187.5H339.61V187H339.11ZM339.11 96.632V96.132H338.61V96.632H339.11ZM346.79 99.96H347.29V99.7998L347.197 99.6694L346.79 99.96ZM346.79 187H346.29V187.5H346.79V187ZM346.534 83.576L346.941 83.8666L347.034 83.7362V83.576H346.534ZM339.11 86.904H338.61V87.404H339.11V86.904ZM339.11 12.408V11.908H338.61V12.408H339.11ZM346.534 15.224H347.034V15.0638L346.941 14.9334L346.534 15.224ZM358.81 187V97.4H357.81V187H358.81ZM358.682 97.0655C356.322 94.4433 353.174 92.3426 349.753 91.2901L349.459 92.2459C352.694 93.2413 355.69 95.2367 357.938 97.7345L358.682 97.0655ZM349.753 92.2459C353.171 91.1943 356.33 89.0917 358.444 86.4483L357.664 85.8236C355.682 88.3003 352.697 90.2937 349.459 91.2901L349.753 92.2459ZM358.554 86.136V11.128H357.554V86.136H358.554ZM358.467 10.8468C353.985 4.25471 346.619 2.17999 339.622 2.17999V3.17999C346.449 3.17999 353.419 5.20128 357.641 11.4091L358.467 10.8468ZM339.622 2.17999H327.59V3.17999H339.622V2.17999ZM327.09 2.67999V187H328.09V2.67999H327.09ZM327.59 187.5H339.11V186.5H327.59V187.5ZM339.61 187V96.632H338.61V187H339.61ZM339.11 97.132H339.622V96.132H339.11V97.132ZM339.622 97.132C342.549 97.132 345.206 98.6031 346.383 100.251L347.197 99.6694C345.814 97.7329 342.839 96.132 339.622 96.132V97.132ZM346.29 99.96V187H347.29V99.96H346.29ZM346.79 187.5H358.31V186.5H346.79V187.5ZM346.127 83.2854C344.941 84.9454 342.533 86.404 339.622 86.404V87.404C342.855 87.404 345.567 85.7906 346.941 83.8666L346.127 83.2854ZM339.622 86.404H339.11V87.404H339.622V86.404ZM339.61 86.904V12.408H338.61V86.904H339.61ZM339.11 12.908H339.622V11.908H339.11V12.908ZM339.622 12.908C342.606 12.908 344.977 13.9041 346.127 15.5146L346.941 14.9334C345.531 12.9599 342.782 11.908 339.622 11.908V12.908ZM346.034 15.224V83.576H347.034V15.224H346.034ZM396.56 182.904L396.892 183.278L397.06 183.129V182.904H396.56ZM396.56 6.77599H397.06V6.55145L396.892 6.40228L396.56 6.77599ZM365.84 6.77599L365.508 6.40228L365.34 6.55145V6.77599H365.84ZM365.84 182.904H365.34V183.129L365.508 183.278L365.84 182.904ZM385.04 177.528L385.297 177.957L385.54 177.811V177.528H385.04ZM377.36 177.528H376.86V177.811L377.103 177.957L377.36 177.528ZM377.36 12.152L377.103 11.7232L376.86 11.8689V12.152H377.36ZM385.04 12.152H385.54V11.8689L385.297 11.7232L385.04 12.152ZM397.06 182.904V6.77599H396.06V182.904H397.06ZM396.892 6.40228C392.167 2.20169 386.658 0.899994 381.2 0.899994V1.89999C386.494 1.89999 391.737 3.15829 396.228 7.14969L396.892 6.40228ZM381.2 0.899994C375.742 0.899994 370.233 2.20169 365.508 6.40228L366.172 7.14969C370.663 3.15829 375.906 1.89999 381.2 1.89999V0.899994ZM365.34 6.77599V182.904H366.34V6.77599H365.34ZM365.508 183.278C370.233 187.478 375.742 188.78 381.2 188.78V187.78C375.906 187.78 370.663 186.522 366.172 182.53L365.508 183.278ZM381.2 188.78C386.658 188.78 392.167 187.478 396.892 183.278L396.228 182.53C391.737 186.522 386.494 187.78 381.2 187.78V188.78ZM384.783 177.099C383.588 177.816 382.655 178.052 381.2 178.052V179.052C382.818 179.052 383.932 178.776 385.297 177.957L384.783 177.099ZM381.2 178.052C379.746 178.052 378.812 177.816 377.617 177.099L377.103 177.957C378.468 178.776 379.582 179.052 381.2 179.052V178.052ZM377.86 177.528V12.152H376.86V177.528H377.86ZM377.617 12.5807C378.812 11.8638 379.746 11.628 381.2 11.628V10.628C379.582 10.628 378.468 10.9041 377.103 11.7232L377.617 12.5807ZM381.2 11.628C382.655 11.628 383.588 11.8638 384.783 12.5807L385.297 11.7232C383.932 10.9041 382.818 10.628 381.2 10.628V11.628ZM384.54 12.152V177.528H385.54V12.152H384.54ZM435.06 94.328L435.473 94.6092L435.56 94.4819V94.328H435.06ZM435.06 11.64H435.56V11.4861L435.473 11.3588L435.06 11.64ZM404.34 2.67999V2.17999H403.84V2.67999H404.34ZM404.34 187H403.84V187.5H404.34V187ZM415.86 187V187.5H416.36V187H415.86ZM415.86 103.288V102.788H415.36V103.288H415.86ZM423.54 90.232L423.947 90.5226L424.04 90.3922V90.232H423.54ZM415.86 93.56H415.36V94.06H415.86V93.56ZM415.86 12.408V11.908H415.36V12.408H415.86ZM423.54 15.736H424.04V15.5758L423.947 15.4454L423.54 15.736ZM435.56 94.328V11.64H434.56V94.328H435.56ZM435.473 11.3588C431.003 4.78448 423.654 2.17999 416.628 2.17999V3.17999C423.426 3.17999 430.413 5.6955 434.647 11.9211L435.473 11.3588ZM416.628 2.17999H404.34V3.17999H416.628V2.17999ZM403.84 2.67999V187H404.84V2.67999H403.84ZM404.34 187.5H415.86V186.5H404.34V187.5ZM416.36 187V103.288H415.36V187H416.36ZM415.86 103.788H416.628V102.788H415.86V103.788ZM416.628 103.788C423.654 103.788 431.003 101.184 435.473 94.6092L434.647 94.0468C430.413 100.272 423.426 102.788 416.628 102.788V103.788ZM423.133 89.9414C421.956 91.5889 419.299 93.06 416.372 93.06V94.06C419.589 94.06 422.564 92.4591 423.947 90.5226L423.133 89.9414ZM416.372 93.06H415.86V94.06H416.372V93.06ZM416.36 93.56V12.408H415.36V93.56H416.36ZM415.86 12.908H416.372V11.908H415.86V12.908ZM416.372 12.908C419.299 12.908 421.956 14.3791 423.133 16.0266L423.947 15.4454C422.564 13.5089 419.589 11.908 416.372 11.908V12.908ZM423.04 15.736V90.232H424.04V15.736H423.04ZM473.31 106.36L473.646 106.73L473.81 106.581V106.36H473.31ZM473.31 2.67999H473.81V2.17999H473.31V2.67999ZM461.79 2.67999V2.17999H461.29V2.67999H461.79ZM461.79 100.984L462.047 101.413L462.29 101.267V100.984H461.79ZM454.11 100.984H453.61V101.267L453.853 101.413L454.11 100.984ZM454.11 2.67999H454.61V2.17999H454.11V2.67999ZM442.59 2.67999V2.17999H442.09V2.67999H442.59ZM442.59 106.36H442.09V106.594L442.27 106.744L442.59 106.36ZM452.318 111.224H452.818V110.826L452.43 110.737L452.318 111.224ZM452.318 187H451.818V187.5H452.318V187ZM463.838 187V187.5H464.338V187H463.838ZM463.838 111.224L463.726 110.737L463.338 110.826V111.224H463.838ZM473.81 106.36V2.67999H472.81V106.36H473.81ZM473.31 2.17999H461.79V3.17999H473.31V2.17999ZM461.29 2.67999V100.984H462.29V2.67999H461.29ZM461.533 100.555C460.338 101.272 459.405 101.508 457.95 101.508V102.508C459.568 102.508 460.682 102.232 462.047 101.413L461.533 100.555ZM457.95 101.508C456.496 101.508 455.562 101.272 454.367 100.555L453.853 101.413C455.218 102.232 456.332 102.508 457.95 102.508V101.508ZM454.61 100.984V2.67999H453.61V100.984H454.61ZM454.11 2.17999H442.59V3.17999H454.11V2.17999ZM442.09 2.67999V106.36H443.09V2.67999H442.09ZM442.27 106.744C445.405 109.356 448.805 110.926 452.206 111.711L452.43 110.737C449.175 109.986 445.919 108.484 442.91 105.976L442.27 106.744ZM451.818 111.224V187H452.818V111.224H451.818ZM452.318 187.5H463.838V186.5H452.318V187.5ZM464.338 187V111.224H463.338V187H464.338ZM463.95 111.711C467.349 110.927 470.758 109.356 473.646 106.73L472.974 105.99C470.23 108.484 466.983 109.985 463.726 110.737L463.95 111.711Z" fill="white"/>
</svg>
