<svg fill="none" height="189" viewBox="0 0 474 189" width="474" xmlns="http://www.w3.org/2000/svg"><path d="m50.76 187v.5h.5v-.5zm0-180.22401h.5v-.28879l-.2501-.14431zm-49.92 0-.242821-.43708-.257179.14287v.29421zm0 180.22401h-.5v.5h.5zm11.52 0v.5h.5v-.5zm0-174.336-.2236-.4472-.2764.1382v.309zm7.68-1.792h.5v-.5475l-.5453.0495zm0 176.128h-.5v.5h.5zm11.52 0v.5h.5v-.5zm0-176.128.0453-.498-.5453-.0495v.5475zm7.68 1.792h.5v-.309l-.2764-.1382zm0 174.336h-.5v.5h.5zm12.02 0v-180.22401h-1v180.22401zm-.2501-180.65711c-6.7631-3.90175-15.5668-5.442896-25.0819-5.442896v.999996c9.4289 0 18.0332 1.53085 24.5821 5.30909zm-25.0819-5.442896c-9.5178 0-18.31649 1.542066-25.330821 5.438916l.485641.87415c6.80968-3.78314 15.41898-5.31307 24.84518-5.31307zm-25.588 5.875996v180.22401h1v-180.22401zm.5 180.72401h11.52v-1h-11.52zm12.02-.5v-174.336h-1v174.336zm-.2764-173.8888c1.9612-.9806 4.6998-1.4866 7.5017-1.7413l-.0906-.9959c-2.8301.2573-5.7235.7754-7.8583 1.8428zm6.9564-2.2392v176.128h1v-176.128zm.5 176.628h11.52v-1h-11.52zm12.02-.5v-176.128h-1v176.128zm-.5453-175.6301c2.8019.2547 5.5405.7607 7.5017 1.7413l.4472-.8944c-2.1348-1.0674-5.0282-1.5855-7.8583-1.8428zm7.2253 1.2941v174.336h1v-174.336zm.5 174.836h11.52v-1h-11.52zm49.82-4.596.3322.374.1678-.149v-.225zm0-176.12801h.5v-.22454l-.1678-.14917zm-30.72 0-.3322-.37371-.1678.14917v.22454zm0 176.12801h-.5v.225l.1678.149zm19.2-5.376.2572.429.2428-.146v-.283zm-7.68 0h-.5v.283l.2428.146zm0-165.376-.2572-.4288-.2428.1457v.2831zm7.68 0h.5v-.2831l-.2428-.1457zm12.02 170.752v-176.12801h-1v176.12801zm-.1678-176.50172c-4.7257-4.20059-10.2339-5.502286-15.6922-5.502286v.999996c5.2937 0 10.5375 1.2583 15.0278 5.2497zm-15.6922-5.502286c-5.4583 0-10.9665 1.301696-15.6922 5.502286l.6644.74741c4.4903-3.9914 9.7341-5.2497 15.0278-5.2497zm-15.86 5.875996v176.12801h1v-176.12801zm.1678 176.50201c4.7257 4.2 10.2339 5.502 15.6922 5.502v-1c-5.2937 0-10.5375-1.258-15.0278-5.25zm15.6922 5.502c5.4583 0 10.9665-1.302 15.6922-5.502l-.6644-.748c-4.4903 3.992-9.7341 5.25-15.0278 5.25zm3.5828-11.681c-1.1949.717-2.1283.953-3.5828.953v1c1.6175 0 2.7321-.276 4.0972-1.095zm-3.5828.953c-1.4545 0-2.3879-.236-3.5828-.953l-.5144.858c1.3651.819 2.4797 1.095 4.0972 1.095zm-3.34-.524v-165.376h-1v165.376zm-.2428-164.9473c1.1949-.7169 2.1283-.9527 3.5828-.9527v-1c-1.6175 0-2.7321.2761-4.0972 1.0952zm3.5828-.9527c1.4545 0 2.3879.2358 3.5828.9527l.5144-.8575c-1.3651-.8191-2.4797-1.0952-4.0972-1.0952zm3.34.524v165.376h1v-165.376zm50.52 174.848v.5h.5v-.5zm0-89.6h.5v-.1919l-.128-.1426zm-8.704-5.632-.147-.4779-1.553.4779 1.553.4779zm8.448-5.632.39.3123.11-.1369v-.1754zm0-75.008h.5v-.1539l-.087-.1273zm-30.464-8.44801v-.5h-.5v.5zm0 184.32001h-.5v.5h.5zm11.52 0v.5h.5v-.5zm0-90.368v-.5h-.5v.5zm7.68 3.328h.5v-.1602l-.093-.1304zm0 87.04h-.5v.5h.5zm-.256-103.424.407.2906.093-.1304v-.1602zm-7.424 3.328h-.5v.5h.5zm0-74.496v-.5h-.5v.5zm7.424 2.816h.5v-.1602l-.093-.1304zm12.276 171.776v-89.6h-1v89.6zm-.128-89.9345c-2.36-2.6222-5.508-4.7229-8.929-5.7754l-.294.9558c3.235.9954 6.231 2.9908 8.479 5.4886zm-8.929-4.8196c3.418-1.0516 6.577-3.1542 8.691-5.7976l-.78-.6247c-1.982 2.4767-4.967 4.4701-8.205 5.4665zm8.801-6.1099v-75.008h-1v75.008zm-.087-75.2892c-4.482-6.59209-11.848-8.66681-18.845-8.66681v1c6.827 0 13.797 2.02129 18.019 8.22911zm-18.845-8.66681h-12.032v1h12.032zm-12.532.5v184.32001h1v-184.32001zm.5 184.82001h11.52v-1h-11.52zm12.02-.5v-90.368h-1v90.368zm-.5-89.868h.512v-1h-.512zm.512 0c2.927 0 5.584 1.4711 6.761 3.119l.814-.5816c-1.383-1.9365-4.358-3.5374-7.575-3.5374zm6.668 2.828v87.04h1v-87.04zm.5 87.54h11.52v-1h-11.52zm-.663-104.2146c-1.186 1.66-3.594 3.1186-6.505 3.1186v1c3.233 0 5.945-1.6134 7.319-3.5374zm-6.505 3.1186h-.512v1h.512zm-.012.5v-74.496h-1v74.496zm-.5-73.996h.512v-1h-.512zm.512 0c2.984 0 5.355.9961 6.505 2.6066l.814-.5812c-1.41-1.9735-4.159-3.0254-7.319-3.0254zm6.412 2.316v68.352h1v-68.352zm50.526 171.776v.5h.5v-.5zm0-180.22401h.5v-.22454l-.168-.14917zm-30.72 0-.332-.37371-.168.14917v.22454zm0 180.22401h-.5v.5h.5zm11.52 0v.5h.5v-.5zm0-89.344v-.5h-.5v.5zm7.68 0h.5v-.5h-.5zm0 89.344h-.5v.5h.5zm0-100.352v.5h.5v-.5zm-7.68 0h-.5v.5h.5zm0-74.496-.257-.4288-.243.1457v.2831zm7.68 0h.5v-.2831l-.243-.1457zm12.02 174.848v-180.22401h-1v180.22401zm-.168-180.59772c-4.725-4.20059-10.234-5.502286-15.692-5.502286v.999996c5.294 0 10.537 1.2583 15.028 5.2497zm-15.692-5.502286c-5.458 0-10.967 1.301696-15.692 5.502286l.664.74741c4.491-3.9914 9.734-5.2497 15.028-5.2497zm-15.86 5.875996v180.22401h1v-180.22401zm.5 180.72401h11.52v-1h-11.52zm12.02-.5v-89.344h-1v89.344zm-.5-88.844h7.68v-1h-7.68zm7.18-.5v89.344h1v-89.344zm.5 89.844h11.52v-1h-11.52zm0-101.352h-7.68v1h7.68zm-7.18.5v-74.496h-1v74.496zm-.243-74.0673c1.195-.7169 2.128-.9527 3.583-.9527v-1c-1.617 0-2.732.2761-4.097 1.0952zm3.583-.9527c1.454 0 2.388.2358 3.583.9527l.514-.8575c-1.365-.8191-2.479-1.0952-4.097-1.0952zm3.34.524v74.496h1v-74.496zm42.84 174.848v.5h.5v-.5zm0-9.728h.5v-.5h-.5zm-11.52 0h-.5v.5h.5zm0-174.59201h.5v-.5h-.5zm-11.52 0v-.5h-.5v.5zm0 184.32001h-.5v.5h.5zm23.54 0v-9.728h-1v9.728zm-.5-10.228h-11.52v1h11.52zm-11.02.5v-174.59201h-1v174.59201zm-.5-175.09201h-11.52v1h11.52zm-12.02.5v184.32001h1v-184.32001zm.5 184.82001h23.04v-1h-23.04zm78.22-4.596.332.374.168-.149v-.225zm0-65.536h.5v-.5h-.5zm-11.52 0v-.5h-.5v.5zm0 60.16.257.429.243-.146v-.283zm-7.68 0h-.5v.283l.243.146zm0-79.872v-.5h-.5v.5zm14.08 0v.5h.5v-.5zm0-11.008h.5v-.5h-.5zm-14.08 0h-.5v.5h.5zm0-74.496-.257-.4288-.243.1457v.2831zm7.68 0h.5v-.2831l-.243-.1457zm0 60.16h-.5v.5h.5zm11.52 0v.5h.5v-.5zm0-65.53601h.5v-.22454l-.168-.14917zm-30.72 0-.332-.37371-.168.14917v.22454zm0 176.12801h-.5v.225l.168.149zm31.22 0v-65.536h-1v65.536zm-.5-66.036h-11.52v1h11.52zm-12.02.5v60.16h1v-60.16zm.243 59.731c-1.195.717-2.129.953-3.583.953v1c1.618 0 2.732-.276 4.097-1.095zm-3.583.953c-1.455 0-2.388-.236-3.583-.953l-.514.858c1.365.819 2.48 1.095 4.097 1.095zm-3.34-.524v-79.872h-1v79.872zm-.5-79.372h14.08v-1h-14.08zm14.58-.5v-11.008h-1v11.008zm-.5-11.508h-14.08v1h14.08zm-13.58.5v-74.496h-1v74.496zm-.243-74.0673c1.195-.7169 2.128-.9527 3.583-.9527v-1c-1.617 0-2.732.2761-4.097 1.0952zm3.583-.9527c1.454 0 2.388.2358 3.583.9527l.514-.8575c-1.365-.8191-2.479-1.0952-4.097-1.0952zm3.34.524v60.16h1v-60.16zm.5 60.66h11.52v-1h-11.52zm12.02-.5v-65.53601h-1v65.53601zm-.168-65.90972c-4.725-4.20059-10.234-5.502286-15.692-5.502286v.999996c5.294 0 10.537 1.2583 15.028 5.2497zm-15.692-5.502286c-5.458 0-10.967 1.301696-15.692 5.502286l.664.74741c4.491-3.9914 9.734-5.2497 15.028-5.2497zm-15.86 5.875996v176.12801h1v-176.12801zm.168 176.50201c4.725 4.2 10.234 5.502 15.692 5.502v-1c-5.294 0-10.537-1.258-15.028-5.25zm15.692 5.502c5.458 0 10.967-1.302 15.692-5.502l-.664-.748c-4.491 3.992-9.734 5.25-15.028 5.25zm53.86-1.78v.5h.5v-.5zm0-180.22401h.5v-.22454l-.168-.14917zm-30.72 0-.332-.37371-.168.14917v.22454zm0 180.22401h-.5v.5h.5zm11.52 0v.5h.5v-.5zm0-174.848-.257-.4288-.243.1457v.2831zm7.68 0h.5v-.2831l-.243-.1457zm0 174.848h-.5v.5h.5zm12.02 0v-180.22401h-1v180.22401zm-.168-180.59772c-4.725-4.20059-10.234-5.502286-15.692-5.502286v.999996c5.294 0 10.537 1.2583 15.028 5.2497zm-15.692-5.502286c-5.458 0-10.967 1.301696-15.692 5.502286l.664.74741c4.491-3.9914 9.734-5.2497 15.028-5.2497zm-15.86 5.875996v180.22401h1v-180.22401zm.5 180.72401h11.52v-1h-11.52zm12.02-.5v-174.848h-1v174.848zm-.243-174.4193c1.195-.7169 2.129-.9527 3.583-.9527v-1c-1.618 0-2.732.2761-4.097 1.0952zm3.583-.9527c1.455 0 2.388.2358 3.583.9527l.514-.8575c-1.365-.8191-2.479-1.0952-4.097-1.0952zm3.34.524v174.848h1v-174.848zm.5 175.348h11.52v-1h-11.52zm44.388-175.092v.5h.5v-.5zm0-9.72801h.5v-.5h-.5zm-28.16 0v-.5h-.5v.5zm0 9.72801h-.5v.5h.5zm8.192 0h.5v-.5h-.5zm0 174.592h-.5v.5h.5zm11.52 0v.5h.5v-.5zm0-174.592v-.5h-.5v.5zm8.948 0v-9.72801h-1v9.72801zm-.5-10.22801h-28.16v1h28.16zm-28.66.5v9.72801h1v-9.72801zm.5 10.22801h8.192v-1h-8.192zm7.692-.5v174.592h1v-174.592zm.5 175.092h11.52v-1h-11.52zm12.02-.5v-174.592h-1v174.592zm-.5-174.092h8.448v-1h-8.448zm43.58 174.092v.5h.5v-.5zm0-89.6h.5v-.1919l-.128-.1426zm-8.704-5.632-.147-.4779-1.553.4779 1.553.4779zm8.448-5.632.39.3123.11-.1369v-.1754zm0-75.008h.5v-.1539l-.087-.1273zm-30.464-8.44801v-.5h-.5v.5zm0 184.32001h-.5v.5h.5zm11.52 0v.5h.5v-.5zm0-90.368v-.5h-.5v.5zm7.68 3.328h.5v-.1602l-.093-.1304zm0 87.04h-.5v.5h.5zm-.256-103.424.407.2906.093-.1304v-.1602zm-7.424 3.328h-.5v.5h.5zm0-74.496v-.5h-.5v.5zm7.424 2.816h.5v-.1602l-.093-.1304zm12.276 171.776v-89.6h-1v89.6zm-.128-89.9345c-2.36-2.6222-5.508-4.7229-8.929-5.7754l-.294.9558c3.235.9954 6.231 2.9908 8.479 5.4886zm-8.929-4.8196c3.418-1.0516 6.577-3.1542 8.691-5.7976l-.78-.6247c-1.982 2.4767-4.967 4.4701-8.205 5.4665zm8.801-6.1099v-75.008h-1v75.008zm-.087-75.2892c-4.482-6.59209-11.848-8.66681-18.845-8.66681v1c6.827 0 13.797 2.02129 18.019 8.22911zm-18.845-8.66681h-12.032v1h12.032zm-12.532.5v184.32001h1v-184.32001zm.5 184.82001h11.52v-1h-11.52zm12.02-.5v-90.368h-1v90.368zm-.5-89.868h.512v-1h-.512zm.512 0c2.927 0 5.584 1.4711 6.761 3.119l.814-.5816c-1.383-1.9365-4.358-3.5374-7.575-3.5374zm6.668 2.828v87.04h1v-87.04zm.5 87.54h11.52v-1h-11.52zm-.663-104.2146c-1.186 1.66-3.594 3.1186-6.505 3.1186v1c3.233 0 5.945-1.6134 7.319-3.5374zm-6.505 3.1186h-.512v1h.512zm-.012.5v-74.496h-1v74.496zm-.5-73.996h.512v-1h-.512zm.512 0c2.984 0 5.355.9961 6.505 2.6066l.814-.5812c-1.41-1.9735-4.159-3.0254-7.319-3.0254zm6.412 2.316v68.352h1v-68.352zm50.526 167.68.332.374.168-.149v-.225zm0-176.12801h.5v-.22454l-.168-.14917zm-30.72 0-.332-.37371-.168.14917v.22454zm0 176.12801h-.5v.225l.168.149zm19.2-5.376.257.429.243-.146v-.283zm-7.68 0h-.5v.283l.243.146zm0-165.376-.257-.4288-.243.1457v.2831zm7.68 0h.5v-.2831l-.243-.1457zm12.02 170.752v-176.12801h-1v176.12801zm-.168-176.50172c-4.725-4.20059-10.234-5.502286-15.692-5.502286v.999996c5.294 0 10.537 1.2583 15.028 5.2497zm-15.692-5.502286c-5.458 0-10.967 1.301696-15.692 5.502286l.664.74741c4.491-3.9914 9.734-5.2497 15.028-5.2497zm-15.86 5.875996v176.12801h1v-176.12801zm.168 176.50201c4.725 4.2 10.234 5.502 15.692 5.502v-1c-5.294 0-10.537-1.258-15.028-5.25zm15.692 5.502c5.458 0 10.967-1.302 15.692-5.502l-.664-.748c-4.491 3.992-9.734 5.25-15.028 5.25zm3.583-11.681c-1.195.717-2.128.953-3.583.953v1c1.618 0 2.732-.276 4.097-1.095zm-3.583.953c-1.454 0-2.388-.236-3.583-.953l-.514.858c1.365.819 2.479 1.095 4.097 1.095zm-3.34-.524v-165.376h-1v165.376zm-.243-164.9473c1.195-.7169 2.129-.9527 3.583-.9527v-1c-1.618 0-2.732.2761-4.097 1.0952zm3.583-.9527c1.455 0 2.388.2358 3.583.9527l.514-.8575c-1.365-.8191-2.479-1.0952-4.097-1.0952zm3.34.524v165.376h1v-165.376zm50.52 82.176.413.2812.087-.1273v-.1539zm0-82.688h.5v-.1539l-.087-.1273zm-30.72-8.96001v-.5h-.5v.5zm0 184.32001h-.5v.5h.5zm11.52 0v.5h.5v-.5zm0-83.712v-.5h-.5v.5zm7.68-13.056.407.2906.093-.1304v-.1602zm-7.68 3.328h-.5v.5h.5zm0-81.152v-.5h-.5v.5zm7.68 3.328h.5v-.1602l-.093-.1304zm12.02 78.592v-82.688h-1v82.688zm-.087-82.9692c-4.47-6.57432-11.819-9.17881-18.845-9.17881v1c6.798 0 13.785 2.51551 18.019 8.74111zm-18.845-9.17881h-12.288v1h12.288zm-12.788.5v184.32001h1v-184.32001zm.5 184.82001h11.52v-1h-11.52zm12.02-.5v-83.712h-1v83.712zm-.5-83.212h.768v-1h-.768zm.768 0c7.026 0 14.375-2.604 18.845-9.1788l-.826-.5624c-4.234 6.2252-11.221 8.7412-18.019 8.7412zm6.505-13.8466c-1.177 1.6475-3.834 3.1186-6.761 3.1186v1c3.217 0 6.192-1.6009 7.575-3.5374zm-6.761 3.1186h-.512v1h.512zm-.012.5v-81.152h-1v81.152zm-.5-80.652h.512v-1h-.512zm.512 0c2.927 0 5.584 1.4711 6.761 3.1186l.814-.5812c-1.383-1.9365-4.358-3.5374-7.575-3.5374zm6.668 2.828v74.496h1v-74.496zm50.27 90.624.336.37.164-.149v-.221zm0-103.68001h.5v-.5h-.5zm-11.52 0v-.5h-.5v.5zm0 98.30401.257.429.243-.146v-.283zm-7.68 0h-.5v.283l.243.146zm0-98.30401h.5v-.5h-.5zm-11.52 0v-.5h-.5v.5zm0 103.68001h-.5v.234l.18.15zm9.728 4.864h.5v-.398l-.388-.089zm0 75.776h-.5v.5h.5zm11.52 0v.5h.5v-.5zm0-75.776-.112-.487-.388.089v.398zm9.972-4.864v-103.68001h-1v103.68001zm-.5-104.18001h-11.52v1h11.52zm-12.02.5v98.30401h1v-98.30401zm.243 97.87501c-1.195.717-2.128.953-3.583.953v1c1.618 0 2.732-.276 4.097-1.095zm-3.583.953c-1.454 0-2.388-.236-3.583-.953l-.514.858c1.365.819 2.479 1.095 4.097 1.095zm-3.34-.524v-98.30401h-1v98.30401zm-.5-98.80401h-11.52v1h11.52zm-12.02.5v103.68001h1v-103.68001zm.18 104.06401c3.135 2.612 6.535 4.182 9.936 4.967l.224-.974c-3.255-.751-6.511-2.253-9.52-4.761zm9.548 4.48v75.776h1v-75.776zm.5 76.276h11.52v-1h-11.52zm12.02-.5v-75.776h-1v75.776zm-.388-75.289c3.399-.784 6.808-2.355 9.696-4.981l-.672-.74c-2.744 2.494-5.991 3.995-9.248 4.747z" fill="#fff"/></svg>