<svg width="1639" height="316" viewBox="0 0 1639 316" fill="none" xmlns="http://www.w3.org/2000/svg">
<path d="M521.979 301.563C501.114 301.563 461.166 301.521 460.869 301.521C446.366 301.86 432.159 296.093 421.939 285.872L364.603 228.494C350.1 242.998 333.264 259.834 331.652 261.445C330.38 262.718 330.846 264.16 331.016 264.584C331.186 265.008 331.907 266.365 333.688 266.365H358.708C361.719 266.365 364.264 268.103 365.409 270.86C366.554 273.617 365.96 276.67 363.84 278.79L356.842 285.788C346.707 295.923 326.266 301.351 312.06 301.351C312.017 301.351 311.975 301.351 311.89 301.351H259.728C245.861 301.309 231.654 301.351 221.646 291.385L217.023 286.763C211.892 281.632 205.064 280.826 190.646 280.826H143.064C134.667 280.826 126.652 284.006 120.545 289.732C112.445 297.323 103.158 301.351 93.6163 301.351H93.5739L7.23138 301.266C4.26282 301.266 1.71835 299.57 0.573332 296.814C-0.571682 294.057 0.0220292 291.046 2.14243 288.968L46.5435 244.567L15.1617 244.525C12.1931 244.525 9.64863 242.786 8.50362 240.072C7.3586 237.315 7.95231 234.304 10.0727 232.226L58.1209 184.136C68.2564 174.043 81.6573 168.445 95.9488 168.445C121.309 168.445 163.632 168.445 190.858 168.445C203.071 168.445 213.546 164.416 220.416 157.079C224.318 152.881 229.873 150.464 235.598 150.464H237.846C240.051 150.464 241.832 152.245 241.832 154.45C241.832 155.51 241.408 156.571 240.687 157.292L200.569 197.409C196.752 201.311 191.367 203.601 185.811 203.601L72.9637 203.559C66.1784 203.559 59.478 205.721 53.9649 209.623H131.487C145.863 209.623 159.9 215.433 170.078 225.611L176.821 232.354C178.941 234.474 179.535 237.485 178.39 240.241C177.245 242.998 174.7 244.694 171.732 244.694L116.347 244.737C94.5069 244.737 62.9554 252.921 45.9074 266.365H196.625L193.445 263.184C191.324 261.064 190.688 258.01 191.876 255.254C193.021 252.455 195.607 250.759 198.618 250.759H207.142C221.264 250.759 235.047 256.484 245.013 266.45L246.073 267.51V267.552L263.63 285.067L266.556 282.14C276.691 272.005 290.135 266.45 304.469 266.45H306.25L354.383 218.317C345.138 209.114 332.882 204.025 319.863 203.983H310.321C304.765 203.983 299.38 201.735 295.521 197.791L255.445 157.716C254.724 156.995 254.3 155.934 254.3 154.874C254.3 152.669 256.081 150.888 258.286 150.888H260.534C266.089 150.888 271.263 153.051 275.207 156.952C282.756 164.501 293.231 168.869 303.917 168.869H331.058C345.138 168.869 358.92 174.594 368.886 184.56L436.442 252.116C444.924 260.597 456.416 265.644 468.757 266.322L469.223 266.365C470.156 266.407 473.252 266.45 483.642 266.45L421.218 203.898H419.437C405.145 203.898 391.659 198.342 381.524 188.207L374.442 181.125C372.321 179.004 371.728 175.993 372.873 173.279C374.018 170.523 376.562 168.826 379.531 168.826L430.039 168.784L429.996 168.869H434.025C448.189 168.784 461.929 174.509 471.895 184.475L478.892 191.472C481.013 193.593 481.607 196.646 480.462 199.403C479.317 202.159 476.73 203.898 473.761 203.898H448.74C446.917 203.898 446.196 205.255 446.026 205.679C445.857 206.103 445.39 207.545 446.662 208.817C448.147 210.301 473.295 235.449 496.958 259.113L527.068 289.265C529.188 291.385 529.782 294.396 528.637 297.153C527.534 299.867 524.948 301.563 521.979 301.563ZM460.869 297.28C461.844 297.28 501.326 297.28 521.979 297.323C523.251 297.323 524.269 296.644 524.735 295.499C525.202 294.354 524.99 293.124 524.057 292.234L493.947 262.082C470.284 238.418 445.178 213.27 443.694 211.828C441.616 209.75 441.022 206.782 442.167 204.067C443.312 201.353 445.814 199.657 448.783 199.657H473.803C475.076 199.657 476.136 198.936 476.602 197.791C477.069 196.604 476.857 195.374 475.924 194.483L468.927 187.486C459.809 178.368 447.171 173.11 434.279 173.11C434.237 173.11 434.152 173.11 434.11 173.11L424.61 173.152L424.653 173.067L379.615 173.11C378.386 173.11 377.325 173.788 376.859 174.933C376.392 176.078 376.647 177.308 377.495 178.156L384.577 185.238C393.907 194.568 406.29 199.699 419.479 199.699H422.999L493.862 270.563H488.731C476.475 270.563 470.962 270.563 468.503 270.181V270.436C455.102 269.715 442.676 264.244 433.431 254.999L365.833 187.444C356.673 178.283 343.993 173.025 331.016 173.025H303.875C292.043 173.025 280.508 168.233 272.154 159.878C269.058 156.783 264.902 155.044 260.492 155.044H258.838L298.531 194.738C301.585 197.876 305.868 199.657 310.279 199.657H319.82C334.027 199.742 347.385 205.297 357.394 215.306L360.32 218.232L307.946 270.606H304.426C291.237 270.606 278.854 275.737 269.524 285.067L263.587 291.004L241.069 268.528V268.485C231.951 259.834 219.653 254.872 207.058 254.872H198.534C197.261 254.872 196.201 255.593 195.735 256.738C195.268 257.926 195.48 259.155 196.413 260.046L206.846 270.478H35.1782L38.7829 266.874C55.322 250.335 91.1991 240.411 116.305 240.369L171.689 240.326C173.513 240.326 174.276 238.927 174.446 238.503C174.616 238.079 175.124 236.552 173.81 235.237L167.067 228.494C157.695 219.122 144.718 213.736 131.487 213.736H42.9813L46.5859 210.132C53.4984 203.219 63.125 199.233 72.9213 199.233L185.769 199.275C190.222 199.275 194.505 197.494 197.516 194.356L237.21 154.662H235.556C230.976 154.662 226.608 156.571 223.469 159.921C215.836 168.148 204.216 172.643 190.815 172.643C163.589 172.643 121.266 172.643 95.9064 172.643C82.7599 172.643 70.3768 177.775 61.0895 187.062L13.0837 235.195C12.1931 236.085 11.9811 237.273 12.4476 238.418C12.914 239.563 13.9318 240.241 15.2041 240.284L56.8063 240.326L5.15339 291.937C3.83874 293.251 4.34764 294.736 4.51727 295.16C4.6869 295.584 5.40784 296.983 7.27379 296.983L93.5739 297.068H93.6163C104.261 297.068 112.573 291.385 117.662 286.593C124.574 280.105 133.607 276.543 143.106 276.543H190.688C204.089 276.543 213.376 277.052 220.034 283.752L224.657 288.417C233.393 297.153 246.751 297.111 259.728 297.153H311.975C312.017 297.153 312.06 297.153 312.102 297.153C325.63 297.153 344.926 291.81 353.874 282.819L360.871 275.822C361.762 274.931 362.016 273.701 361.507 272.514C361.041 271.326 359.981 270.648 358.708 270.648H333.688C330.719 270.648 328.217 268.952 327.072 266.238C325.969 263.523 326.563 260.555 328.599 258.477C330.253 256.823 348.191 238.884 363.034 224.042L364.518 222.557L424.865 282.904C434.364 292.318 447.468 297.619 460.869 297.28C460.827 297.28 460.827 297.28 460.869 297.28Z" fill="#464965"/>
<path d="M964.464 301.351L928.12 301.309H865.399C852.379 300.291 840.463 294.905 831.684 286.084L824.687 279.087C822.567 276.966 821.973 273.913 823.118 271.157C824.263 268.4 826.85 266.661 829.818 266.661H854.839C856.663 266.661 857.341 265.304 857.511 264.88C857.68 264.456 858.147 263.014 856.875 261.742L839.615 244.482L757.004 244.524L735.291 266.237H737.412C751.449 266.237 765.231 271.92 775.155 281.843L782.237 288.925C784.357 291.003 784.951 294.057 783.806 296.771C782.661 299.527 780.116 301.224 777.148 301.224L662.35 301.266L661.925 301.181H642.291L642.333 301.096H619.942H619.899C605.565 301.096 592.122 295.541 581.986 285.406L575.074 278.493C572.954 276.373 572.36 273.319 573.505 270.563C574.65 267.806 577.237 266.068 580.205 266.068H623.589C625.412 266.068 626.133 264.668 626.345 264.244C626.812 263.141 626.557 261.954 625.709 261.106L568.034 203.431H527.704C515.618 203.431 504.804 207.587 498.104 214.796C494.202 218.995 488.647 221.412 482.922 221.412H480.674C478.469 221.412 476.688 219.631 476.688 217.426C476.688 216.365 477.112 215.305 477.833 214.584L517.95 174.466C521.64 170.65 526.941 168.402 532.412 168.317H639.449C651.536 168.317 662.35 164.161 669.05 156.952C672.951 152.754 678.507 150.336 684.232 150.336H686.48C688.685 150.336 690.466 152.117 690.466 154.323C690.466 155.383 690.042 156.443 689.321 157.164L658.745 187.74C648.652 197.833 635.208 203.389 620.917 203.389H588.645L645.132 259.876C648.44 263.184 655.225 265.983 659.932 265.983L714.851 266.068L736.563 244.355H709.168L744.154 209.368H771.55L772.441 208.478C773.331 207.587 773.586 206.357 773.077 205.212C772.61 204.067 771.55 203.346 770.278 203.346H752.678C747.123 203.346 741.737 201.099 737.878 197.155L697.803 157.079C697.082 156.358 696.658 155.298 696.658 154.238C696.658 152.033 698.439 150.251 700.644 150.251H702.892C708.617 150.251 714.13 152.669 718.074 156.867C724.901 164.204 735.418 168.232 747.674 168.232H827.825C842.117 168.232 855.56 173.83 865.653 183.923L913.701 231.972C915.822 234.05 916.416 237.061 915.271 239.817C914.125 242.574 911.581 244.27 908.612 244.27H860.267L882.447 266.407H884.228C892.201 266.407 900.173 268.23 907.383 271.665L965.481 213.609L958.739 206.866C955.897 204.025 955.897 199.36 958.739 196.519L970.867 184.39C980.96 174.297 994.404 168.699 1008.7 168.699H1116.24C1128.33 168.699 1139.14 164.543 1145.88 157.334C1149.79 153.135 1155.3 150.718 1161.07 150.718H1163.31C1165.52 150.718 1167.3 152.499 1167.3 154.704C1167.3 155.765 1166.88 156.825 1166.2 157.503L1083.63 240.071C1083.04 240.665 1082.74 241.429 1082.74 242.234C1082.74 243.04 1083.08 243.846 1083.63 244.397L1127.86 288.544C1129.98 290.664 1130.58 293.675 1129.43 296.432C1128.29 299.188 1125.7 300.927 1122.73 300.927L964.464 301.351ZM925.448 297.068L964.464 297.11L1122.69 296.983C1124.55 296.983 1125.32 295.541 1125.49 295.117C1125.66 294.693 1126.17 293.166 1124.85 291.809L1080.58 247.747C1079.18 246.348 1078.41 244.524 1078.41 242.574C1078.41 240.623 1079.18 238.799 1080.58 237.4L1126.25 191.726H1126.21L1162.68 155.256H1160.98C1156.4 155.256 1152.03 157.164 1148.94 160.514C1141.26 168.741 1129.64 173.237 1116.2 173.237H1008.65C995.506 173.237 983.123 178.368 973.793 187.655L961.665 199.784C960.477 200.971 960.477 202.922 961.665 204.11L971.419 213.863L908.146 277.051L906.789 276.33C899.834 272.726 891.989 270.86 884.185 270.86H880.666L850.005 240.241H908.57C910.394 240.241 911.157 238.842 911.327 238.418C911.496 237.993 911.963 236.467 910.69 235.195L862.6 187.104C853.312 177.774 840.929 172.643 827.783 172.643H747.674C734.231 172.643 722.611 168.105 714.935 159.92C711.84 156.57 707.429 154.662 702.849 154.662H701.195L740.889 194.356C743.942 197.494 748.226 199.275 752.636 199.275H770.235C773.204 199.275 775.791 200.971 776.936 203.77C778.081 206.527 777.487 209.538 775.367 211.658L773.246 213.779H745.851L719.346 240.284H746.741L716.547 270.478L659.847 270.393C653.995 270.393 646.192 267.17 642.079 263.014L578.339 199.275H620.832C633.979 199.275 646.362 194.144 655.649 184.856L685.801 154.704H684.147C679.567 154.704 675.199 156.613 672.061 159.963C664.428 168.19 652.808 172.685 639.322 172.685H532.327C528.001 172.77 523.803 174.551 520.834 177.562L481.14 217.256H482.794C487.374 217.256 491.742 215.348 494.881 211.997C502.514 203.77 514.134 199.275 527.62 199.275H569.688L628.635 258.222C630.713 260.3 631.307 263.269 630.162 265.983C629.017 268.697 626.472 270.436 623.504 270.436H580.121C578.848 270.436 577.788 271.156 577.322 272.302C576.855 273.489 577.067 274.719 578 275.609L584.913 282.522C594.242 291.852 606.625 296.983 619.814 296.983H619.857L648.143 296.941L648.1 297.025H777.105C778.971 297.025 779.692 295.626 779.862 295.159C780.032 294.735 780.54 293.209 779.226 291.936L772.144 284.854C763.026 275.694 750.346 270.478 737.412 270.478H725.028L755.223 240.284L841.353 240.241L859.843 258.731C861.921 260.809 862.515 263.778 861.37 266.492C860.225 269.206 857.723 270.902 854.754 270.902H829.734C828.461 270.902 827.401 271.623 826.935 272.768C826.468 273.955 826.68 275.185 827.613 276.076L834.611 283.073C842.711 291.173 853.652 296.135 865.526 297.068H920.275H925.448ZM1049.58 270.52H968.577C965.609 270.52 963.022 268.824 961.877 266.068C960.732 263.311 961.325 260.3 963.446 258.18L988.679 232.947C992.58 229.045 992.495 224.084 991.096 220.776C989.696 217.426 986.261 213.863 980.791 213.863H979.943L978.416 212.379C976.253 210.216 975.659 207.163 976.804 204.406C977.949 201.607 980.536 199.911 983.547 199.911H1091.98C1095 199.911 1097.54 201.607 1098.68 204.406C1099.83 207.163 1099.24 210.216 1097.12 212.294L1066.84 242.574C1065.48 243.931 1063.61 244.694 1061.71 244.694H1048.47C1047.24 244.694 1046.18 245.372 1045.72 246.517C1045.55 246.942 1045.04 248.468 1046.35 249.783L1054.71 258.137C1056.83 260.258 1057.42 263.269 1056.28 266.068C1055.13 268.782 1052.59 270.52 1049.58 270.52ZM981.681 209.58C987.661 209.919 992.707 213.482 995.04 219.08C997.457 224.932 996.185 231.378 991.69 235.873L966.457 261.106C965.566 261.996 965.312 263.226 965.821 264.371C966.287 265.516 967.347 266.237 968.577 266.237H1049.58C1050.85 266.237 1051.87 265.559 1052.38 264.371C1052.84 263.226 1052.63 261.996 1051.74 261.063L1043.38 252.709C1041.26 250.589 1040.67 247.578 1041.82 244.821C1042.96 242.065 1045.51 240.368 1048.47 240.368H1061.71C1062.51 240.368 1063.27 240.029 1063.87 239.478L1094.19 209.156C1095.08 208.266 1095.33 207.036 1094.83 205.891C1094.32 204.746 1093.3 204.025 1092.03 204.025H983.59C982.317 204.025 981.257 204.746 980.748 205.933C980.239 207.121 980.494 208.35 981.427 209.283L981.681 209.58ZM880.708 213.821H781.516L786.69 210.004C796.104 203.007 807.088 199.317 818.411 199.317H850.768C860.564 199.317 870.191 203.304 877.103 210.216L880.708 213.821ZM795.171 209.58H869.809C864.296 205.679 857.596 203.516 850.768 203.516H818.411C810.311 203.558 802.381 205.636 795.171 209.58Z" fill="#464965"/>
<path d="M1142.03 301.351C1139.01 301.351 1136.43 299.613 1135.28 296.856C1134.14 294.1 1134.73 291.046 1136.85 288.926L1143.81 281.971C1153.94 271.835 1167.39 266.28 1181.68 266.28H1194.19L1215.9 244.567H1188.5L1223.49 209.581H1250.89L1251.78 208.69C1252.67 207.799 1252.92 206.57 1252.41 205.425C1251.95 204.28 1250.89 203.559 1249.61 203.559H1232.02C1226.46 203.559 1221.07 201.311 1217.21 197.367L1177.14 157.292C1176.42 156.571 1175.99 155.51 1175.99 154.45C1175.99 152.245 1177.78 150.464 1179.98 150.464H1182.23C1187.95 150.464 1193.47 152.881 1197.41 157.079C1204.24 164.416 1214.76 168.445 1227.01 168.445H1318.65C1332.95 168.445 1346.39 174.043 1356.48 184.178L1404.53 232.226C1406.65 234.304 1407.24 237.315 1406.1 240.072C1404.95 242.828 1402.41 244.525 1399.44 244.525L1236.43 244.567L1214.71 266.28H1216.83C1230.87 266.28 1244.65 271.963 1254.58 281.886L1261.66 288.968C1263.78 291.046 1264.37 294.1 1263.23 296.814C1262.08 299.57 1259.54 301.266 1256.57 301.266L1142.03 301.351ZM1181.72 270.478C1168.74 270.478 1156.02 275.737 1146.86 284.939L1139.91 291.894C1139.01 292.785 1138.76 294.015 1139.23 295.202C1139.69 296.39 1140.75 297.068 1142.03 297.068L1256.61 297.026C1258.48 297.026 1259.2 295.626 1259.37 295.16C1259.54 294.736 1260.05 293.209 1258.73 291.937L1251.65 284.855C1242.49 275.695 1229.85 270.478 1216.92 270.478H1204.53L1234.73 240.284H1399.48C1401.31 240.284 1402.07 238.884 1402.24 238.46C1402.41 238.036 1402.88 236.51 1401.6 235.237L1353.56 187.189C1344.27 177.859 1331.89 172.728 1318.74 172.728H1227.1C1213.65 172.728 1202.03 168.19 1194.36 160.006C1191.26 156.655 1186.85 154.747 1182.27 154.747H1180.62L1220.31 194.441C1223.36 197.579 1227.65 199.36 1232.06 199.36H1249.66C1252.67 199.36 1255.21 201.057 1256.36 203.855C1257.5 206.612 1256.91 209.623 1254.79 211.743L1252.67 213.864H1225.27L1198.77 240.369H1226.16L1195.97 270.563H1181.72V270.478ZM1371.66 213.821H1260.94L1266.11 210.005C1275.36 203.135 1297.58 199.318 1309.37 199.318H1341.72C1351.52 199.318 1361.15 203.304 1368.06 210.217L1371.66 213.821ZM1276.16 209.581H1360.72C1355.21 205.679 1348.51 203.559 1341.72 203.559H1309.37C1300.8 203.559 1286.17 205.806 1276.16 209.581Z" fill="#464965"/>
<path d="M1439.35 315.6H1430.82C1416.7 315.6 1402.92 309.875 1392.95 299.909L1356.19 263.141C1354.07 261.021 1353.47 257.968 1354.62 255.211C1355.76 252.455 1358.35 250.716 1361.36 250.716H1369.8C1384.09 250.716 1397.49 256.271 1407.63 266.364H1592.69C1584.81 259.24 1574.42 255.211 1563.81 255.211H1465.51C1452.96 255.211 1441.13 250.334 1432.27 241.428L1371.71 180.87C1369.59 178.75 1368.99 175.739 1370.14 173.024C1371.28 170.268 1373.83 168.572 1376.8 168.572H1388.2C1400.76 168.572 1412.59 173.449 1421.45 182.354L1467.25 228.197C1475.35 236.297 1486.08 240.75 1497.49 240.75H1559.36C1561.27 240.75 1561.99 239.308 1562.2 238.842C1562.67 237.654 1562.42 236.424 1561.52 235.534C1549.82 223.956 1537.61 211.955 1529.21 203.728H1500.97C1498 203.728 1495.45 202.031 1494.27 199.317C1493.12 196.603 1493.67 193.55 1495.71 191.387C1498.25 188.758 1501.09 185.789 1503.89 182.905C1512.67 173.83 1525.01 168.614 1537.65 168.614H1569.88C1582.09 168.614 1592.57 164.585 1599.44 157.249C1603.34 153.05 1608.89 150.633 1614.62 150.633H1616.87C1619.07 150.633 1620.85 152.414 1620.85 154.619C1620.85 155.68 1620.43 156.74 1619.71 157.461L1579.59 197.579C1575.77 201.48 1570.39 203.77 1564.83 203.77H1550.58L1635.95 289.137C1638.03 291.215 1638.66 294.226 1637.52 296.983C1636.37 299.739 1633.83 301.436 1630.86 301.478L1544.52 301.563C1544.52 301.563 1544.52 301.563 1544.48 301.563C1535.19 301.563 1526.03 297.704 1518.06 290.452C1511.4 284.388 1503.21 281.037 1494.99 281.037H1422.09L1444.39 303.344C1446.51 305.464 1447.11 308.518 1445.96 311.274C1444.82 314.031 1442.32 315.6 1439.35 315.6ZM1361.27 254.872C1360 254.872 1358.94 255.593 1358.48 256.738C1358.01 257.925 1358.22 259.155 1359.15 260.046L1395.92 296.813C1405.12 306.016 1417.8 311.274 1430.82 311.274H1439.35C1440.62 311.274 1441.68 310.553 1442.15 309.408C1442.61 308.221 1442.4 306.991 1441.47 306.101L1411.91 276.542H1495.03C1504.32 276.542 1513.52 280.274 1520.98 287.059C1525.99 291.639 1534.13 297.068 1544.52 297.068C1544.52 297.068 1544.52 297.068 1544.56 297.068L1630.86 296.983C1632.69 296.983 1633.41 295.583 1633.62 295.117C1634.08 293.972 1633.83 292.742 1632.98 291.894L1540.36 199.275H1564.83C1569.29 199.275 1573.53 197.494 1576.58 194.356L1616.27 154.662H1614.62C1610.08 154.662 1605.67 156.57 1602.53 159.92C1594.9 168.148 1583.28 172.643 1569.88 172.643H1537.65C1526.16 172.643 1514.96 177.392 1506.95 185.662C1504.15 188.546 1501.31 191.514 1498.76 194.144C1497.87 195.077 1497.66 196.306 1498.12 197.451C1498.63 198.596 1499.65 199.275 1500.92 199.275H1530.95L1531.58 199.869C1540.02 208.096 1552.53 220.437 1564.54 232.268C1566.7 234.389 1567.29 237.442 1566.15 240.199C1565 242.998 1562.42 244.736 1559.4 244.736H1497.53C1484.98 244.736 1473.15 239.859 1464.28 230.954L1418.48 185.111C1410.38 177.011 1399.65 172.558 1388.2 172.558H1376.8C1374.93 172.558 1374.21 173.957 1374.04 174.382C1373.87 174.806 1373.36 176.332 1374.68 177.605L1435.23 238.163C1443.33 246.263 1454.06 250.716 1465.51 250.716H1563.81C1576.2 250.716 1588.33 255.72 1597.15 264.498L1603.04 270.393H1405.89L1403.89 268.442C1394.69 259.621 1382.61 254.787 1369.8 254.787H1361.27V254.872Z" fill="#464965"/>
<path d="M1233.16 100.252H1224.64C1210.98 100.252 1197.88 105.681 1188.25 115.307V115.35C1188.17 115.434 1188.08 115.477 1188 115.562L1187.7 115.858H996.566C998.56 113.823 1051.78 61.1947 1064.84 48.8964C1074.64 48.8964 1082.57 48.8964 1082.57 48.8964C1087.49 48.8964 1092.32 46.9456 1095.84 43.3409L1135.96 3.223C1136.26 2.92615 1136.47 2.41725 1136.47 1.86595C1136.47 0.848159 1135.66 0 1134.6 0H1132.36C1127.23 0 1122.26 2.1204 1118.74 5.8947C1110.86 14.3339 1099.19 17.9386 1087.66 17.9386C1074.85 17.9386 1045.04 17.9386 1045.04 17.9386C1040.12 17.9386 1035.28 19.8893 1031.77 23.494L991.647 63.6543C991.35 63.9512 991.138 64.4601 991.138 65.0114C991.138 66.0292 991.944 66.8773 993.004 66.8773H995.252C1000.38 66.8773 1005.34 64.7569 1008.86 60.9826C1016.75 52.5434 1028.41 48.9388 1039.95 48.9388C1042.54 48.9388 1045.63 48.9388 1048.94 48.9388L971.503 126.376L926.424 81.296L878.375 33.2054C868.749 23.5788 855.645 18.1506 842.032 18.1506L789.064 18.1082C777.741 18.1082 766.843 13.6129 758.827 5.59785C755.35 2.1204 750.6 0.127224 745.681 0.127224H743.433C742.416 0.127224 741.567 0.932975 741.567 1.99317C741.567 2.50207 741.78 3.01096 742.076 3.35023L782.194 43.4681C785.714 47.0728 790.506 49.0236 795.468 49.0236H865.102C874.389 49.0236 883.337 52.7131 889.91 59.3287L958.314 127.733C961.537 130.956 959.247 136.469 954.71 136.469H949.451L928.714 115.731C928.629 115.646 928.544 115.604 928.459 115.519V115.477C928.162 115.18 927.781 114.968 927.484 114.671L887.196 74.3835C877.527 64.7145 864.423 59.2863 850.768 59.3287L814.721 59.3711C801.066 59.3711 788.004 64.7993 778.378 74.4259L727.318 125.485C718.794 119.675 708.701 116.452 698.227 116.452H695.512L669.092 90.0321H722.526C727.064 90.0321 729.354 84.5614 726.131 81.3384L678.083 33.2054C668.456 23.5788 655.395 18.1506 641.739 18.1082H632.876H561.631C550.096 18.1082 538.306 14.5035 530.461 6.06433C526.941 2.24762 521.979 0.127224 516.848 0.127224H514.6H510.996C505.864 0.127224 500.902 2.79892 497.383 6.57323C489.537 15.0124 477.748 18.6171 466.213 18.6171H358.666C345.011 18.6171 331.949 24.0453 322.323 33.6719L310.194 45.8006C308.158 47.8362 308.158 51.1016 310.194 53.1371L318.421 61.3643L249.339 130.489L217.321 98.4712C211.935 93.0854 204.641 90.0745 197.05 90.0745H193.572C188.992 90.0745 186.702 84.519 189.925 81.296L267.828 3.30782C268.125 3.01096 268.337 2.50207 268.337 1.95077C268.337 0.932975 267.532 0.0848159 266.471 0.0848159H264.224C259.092 0.0848159 254.131 2.20521 250.611 6.02193C242.765 14.4611 230.976 18.0658 219.441 18.0658C215.285 18.0658 206.846 18.0658 198.619 18.0658C184.963 18.0658 171.859 23.494 162.233 33.1206L129.663 65.6899L97.1365 33.163C87.5099 23.494 74.4058 18.1082 60.7505 18.1082H7.48612C2.90606 18.1082 0.573623 23.6636 3.83903 26.929C29.3262 52.4162 83.566 106.656 84.4141 107.504C87.5523 110.685 85.3047 116.071 80.8518 116.071H55.8312C51.2511 116.071 48.9611 121.626 52.1841 124.891L59.1814 131.889C68.808 141.515 81.912 146.901 95.525 146.859H102.31C102.31 146.901 102.31 146.901 102.268 146.943H133.31L150.019 146.901C154.557 146.901 156.847 141.43 153.624 138.207L146.542 131.125C136.873 121.456 123.811 116.071 110.156 116.071H107.484L49.1731 57.6748C45.9501 54.4518 48.2401 48.9388 52.7778 48.9388C64.1431 48.9388 75.0844 53.4764 83.1419 61.5339L96.6276 75.0196C106.254 84.6462 119.358 90.1169 133.014 90.1169H147.984C147.984 90.1169 150.443 90.4137 150.443 87.5724C150.443 86.5546 148.959 85.0703 148.959 85.0703L136.915 73.0265L145.863 64.0784C155.532 54.4094 168.594 48.9812 182.292 48.9812H207.694L170.205 86.4698C168.212 88.463 168.212 91.7284 170.205 93.7215L208.076 131.592C217.702 141.261 230.806 146.647 244.462 146.647H245.352C245.395 146.647 245.437 146.647 245.479 146.647L310.279 146.731H314.435L472.659 146.604C473.337 146.604 473.931 146.435 474.525 146.223C475.161 146.477 475.797 146.689 476.56 146.689L591.147 146.647C595.684 146.647 597.974 141.134 594.751 137.953L587.669 130.871C578.085 121.244 565.023 115.858 551.41 115.858C547.127 115.858 544.201 115.858 544.159 115.858L570.112 89.9048L654.462 89.8624C661.374 96.7749 667.65 103.051 672.358 107.716C675.496 110.854 673.248 116.24 668.795 116.24H643.775C639.195 116.24 636.905 121.796 640.128 125.061L647.125 132.058C655.776 140.71 667.269 145.714 679.355 146.647H739.405C739.617 146.647 739.786 146.562 739.956 146.519L860.522 146.562L860.479 146.519H917.476C927.06 155.68 939.697 160.853 952.971 160.853H961.495C966.118 160.853 968.408 155.298 965.142 152.032L959.629 146.519H979.434C979.518 146.519 979.561 146.477 979.603 146.477L1049.83 146.562C1059.5 146.562 1068.32 142.151 1075.36 135.536C1081.85 129.429 1090.42 126.036 1099.36 126.036H1177.39L1165.52 137.911C1162.25 141.176 1164.54 146.731 1169.17 146.731H1177.69C1191.35 146.731 1203.09 142.66 1212.76 132.991L1236.81 108.946C1240.07 105.808 1237.78 100.252 1233.16 100.252ZM411.676 90.0745H398.445C393.907 90.0745 391.617 95.5875 394.84 98.7681L403.195 107.122C406.418 110.345 404.128 115.901 399.547 115.901H318.548C314.011 115.901 311.678 110.388 314.944 107.165L340.176 81.9321C348.531 73.5778 342.636 59.2439 330.762 59.2439L329.871 58.3533C326.606 55.0879 328.938 49.4901 333.561 49.4901H441.998C446.578 49.4901 448.868 55.0031 445.645 58.2685L415.366 88.5478C414.39 89.5656 413.076 90.0745 411.676 90.0745ZM587.881 57.7172L586.397 59.2015H559.001L528.256 89.9472H555.651L529.697 115.901H516.297C502.641 115.901 489.58 121.329 479.911 130.956L474.652 136.214L432.074 93.764C430.039 91.7284 430.039 88.463 432.074 86.4274L481.352 37.1494H481.31L514.176 4.2832L553.361 43.4681C556.839 47.0728 561.673 49.0236 566.635 49.0236H584.234C588.814 48.9812 591.104 54.4942 587.881 57.7172ZM601.961 59.2439C610.739 52.7131 621.341 48.9812 632.452 48.9812H632.961H664.809C674.096 48.9812 683.045 52.6707 689.618 59.2439H601.961ZM864.72 136.384C855.857 136.384 847.291 132.991 840.845 126.927C833.805 120.354 825.069 115.943 815.442 115.943H751.236C767.776 99.4042 790.209 90.0745 813.576 90.0745H839.275C852.888 90.0745 865.95 95.4603 875.619 105.044C887.069 116.452 901.7 131.041 907.086 136.384H864.72Z" fill="#464965"/>
</svg>
