<svg xmlns="http://www.w3.org/2000/svg" viewBox="0 0 1474.85 440.51"><defs><style>.cls-1{isolation:isolate;}.cls-2{opacity:0.9;}.cls-3{fill:none;stroke:#fff;stroke-miterlimit:10;stroke-width:10px;}.cls-4{fill:#fff;}</style></defs><title>W Logo - Secondary</title><g id="Layer_2" data-name="Layer 2"><g id="Artboard_1" data-name="Artboard 1" class="cls-1"><g id="Vector_Smart_Object_Image" data-name="Vector Smart Object Image" class="cls-2"><path class="cls-3" d="M891.39,219a361.19,361.19,0,0,1,51.07,0c5.37.39,10.73.82,16.08,1.36,23.73,2.41,41.48,13.91,51.07,36.18,14,32.5,16.14,66,5,99.6-9.42,28.57-30.69,46.54-58.95,53.83a211.13,211.13,0,0,1-60.37,6.83c-38.3-1.57-64.18-23.95-74.38-61.11-6.8-24.79-8.33-49.84-3.51-74.65a88.86,88.86,0,0,1,13.07-32.72c10.12-15.12,24.6-26.83,48.16-28.45Zm63.83,100.17a90.41,90.41,0,0,0-.67-14.34c-1-7.61-1.89-15.94-4.37-23.77C944.43,262.88,929.34,254,910,255.24S877,267.35,875,287a196.64,196.64,0,0,0,1.44,51.41c3.41,20.55,18.08,30.56,38,30.06,21.23-.54,36.07-12.67,39.63-33.15A118.26,118.26,0,0,0,955.22,319.14Z"/><path class="cls-3" d="M8,235.52l171.56,6.26,9,50L84.31,281.25c2.33,8.18,4,14,5.84,20.48l91.53,9.88c2.82,10.32,5.4,19.76,8.68,31.73l-94.58-4.57v30.78h113.7c-1.72,18.08-3.12,32.86-4.69,49.34H20.21C25.7,358.2,36.91,296.56,8,235.52Z"/><path class="cls-3" d="M739.1,419.35l-29-75.55H690.24v76.56H635.47c8.84-63-.37-124.53-20.66-186.53,31-2.65,57.94-5.34,85-7.14,15.1-1,30.35-1.53,45.42-.53,23.32,1.55,39.5,14.28,45.89,36.69,6.69,23.46,1.22,44.62-17.22,61.54-3,2.8-6.57,5.09-11.36,8.75l38.91,86.21ZM688.43,298.91c11.58,0,22.37.28,33.14-.09,9.7-.33,15.69-5.51,15.78-15.54.08-10.73-6.16-16.69-16.54-16.41-12.28.34-24.52,2.16-37,3.35,0,3.68-.31,5.72.06,7.63C685.29,284.88,686.9,291.87,688.43,298.91Z"/><path class="cls-3" d="M1116.43,346.9c1.29,23.33,2.5,45,3.8,68.47l-65.61-5.72c-3.79-63.13-7.54-125.58-11.39-189.95,7.53-1,13.46-2.62,19.35-2.53,37.19.58,74.43.57,111.52,3,11,.7,23.67,6.12,32,13.44,22.77,20,28.81,46.89,22.86,76-5.61,27.35-27.29,43.6-56.12,42.51C1155.1,351.36,1137.41,348.88,1116.43,346.9Zm-2.77-49.51c9.95,1,17.67,1.72,25.36,2.69,10.85,1.37,20-.06,22.58-12.92s-3.95-25.56-15.88-28.45c-10.39-2.52-21.27-3-34.29-4.72C1112.21,269.27,1112.89,282.48,1113.66,297.39Zm-70.43-77.69c7.53-1,9.51-2.53,19.35-2.53,37.19,0,74.43.57,111.52,3m-130.87-.42c5.34-1.63,9.51-2.53,19.35-2.53"/><path class="cls-3" d="M396.05,248.33c-1.46,31.63,9.83,57.61,20.62,83.76,11.32,27.42,12.61,55.84,8,85.92H375.2c-19-32.34-45.6-58.24-77.27-77.51v77.56H241.17c.72-8.33,1.27-16,2.07-23.69,2.91-27.66-1.37-54.17-11.39-80.1-8.5-22-15.22-44.56-14.12-69.79H269c18.87,41.73,55.25,65.3,95.25,90.17-5.66-16.72-11.26-30.13-14.62-44.07-3.25-13.49-4.19-27.54-6.28-42.25Z"/><path class="cls-3" d="M1228.82,221.82l79,7.76L1352.21,300,1393,235.85l73.49,4.26c-2.93,5.11-4.87,9.08-7.34,12.7-21.26,31.15-43,62-63.64,93.55-4.49,6.87-6.78,16.19-7.19,24.53-1,20.75-.33,41.59-.33,64.39l-64.77-3c-1.38-23.09-2-44.49-4.25-65.73a56,56,0,0,0-8.37-24.3c-23.44-35.35-47.77-70.13-71.75-105.13C1236,233,1233.3,228.69,1228.82,221.82Z"/><path class="cls-3" d="M557.65,419.15c-4.06.41-7.1,1-10.15,1-13,.1-26,0-41.44,0,2.47-42.69,3.22-83.54-19.5-122.12l-57.74,3.82c-3.1-17.56-6.11-34.6-9.54-54l170.41-11.56c3.37,15.7,6.61,30.83,10.3,48l-55.8,7.77C561.9,333.77,563,375.92,557.65,419.15Z"/><path class="cls-4" d="M194.72,200.35v-71q0-13.16,1-27.05T197.87,79q1.14-9.45,1.43-12h-1.15L161.8,200.35H112.29L75.65,67.26H74.51q.27,2.58,1.57,11.88t2.43,23.18q1.14,13.89,1.15,27.05v71H21.56V3.43h89.3l29.76,113.63h1.15L171.25,3.43H257.4V200.35Z"/><path class="cls-4" d="M467.34,26q27.77,26.06,27.77,75.85t-27.77,75.85q-27.76,26.06-78.71,26t-78.56-25.91q-27.63-25.89-27.62-76t27.62-76Q337.69,0,388.63,0T467.34,26ZM357.72,59.53q-10.59,12.31-10.59,33.2v18.32q0,20.89,10.59,33.2t30.91,12.31q20.33,0,31.06-12.31t10.73-33.2V92.73q0-20.88-10.73-33.2T388.63,47.22Q368.3,47.22,357.72,59.53Z"/><path class="cls-4" d="M700.33,96.46q-9.74,14.6-28.33,21.46l43.79,82.43h-71l-34.92-71.84H586.42v71.84H523.17V3.43H643.66q21.18,0,36.21,8.16a54.82,54.82,0,0,1,22.61,22,62.06,62.06,0,0,1,7.59,30.2A57.54,57.54,0,0,1,700.33,96.46ZM640.51,53.52a17.13,17.13,0,0,0-12.59-5.15h-41.5V84.72h41.5a16.85,16.85,0,0,0,12.59-5.3,17.92,17.92,0,0,0,5.16-13A17.47,17.47,0,0,0,640.51,53.52Z"/><path class="cls-4" d="M877.79,200.35l-8.3-27.76h-69l-8.3,27.76H727.52L799.36,3.43h73.56l71.84,196.92Zm-64.11-71.84h42.64L835.71,58.39h-1.14Z"/><path class="cls-4" d="M968.52,3.43h63.25V150h101v50.37H968.52Z"/></g></g></g></svg>