<svg xmlns="http://www.w3.org/2000/svg" viewBox="0 0 1458.46 435.28"><defs><style>.cls-1{isolation:isolate;}.cls-2{opacity:0.9;}.cls-3{fill:#fff;}</style></defs><title>W Logo - Primary</title><g id="Layer_2" data-name="Layer 2"><g id="Artboard_1" data-name="Artboard 1" class="cls-1"><g id="Vector_Smart_Object_Image" data-name="Vector Smart Object Image" class="cls-2"><path class="cls-3" d="M883.35,219a361.33,361.33,0,0,1,51.08,0c5.36.39,10.72.82,16.08,1.36,23.72,2.41,41.47,13.91,51.06,36.18,14,32.5,16.14,66,5,99.6-9.42,28.57-30.69,46.54-59,53.83a211.1,211.1,0,0,1-60.36,6.83c-38.3-1.57-64.19-23.95-74.39-61.11-6.8-24.79-8.32-49.84-3.51-74.65a89,89,0,0,1,13.07-32.72c10.13-15.12,24.61-26.83,48.17-28.45Zm63.84,100.17a90.41,90.41,0,0,0-.68-14.34c-1-7.61-1.89-15.94-4.37-23.77C936.39,262.88,921.3,254,902,255.24S868.91,267.35,866.91,287a196.65,196.65,0,0,0,1.45,51.41c3.4,20.55,18.08,30.56,38,30.06,21.23-.54,36.08-12.67,39.63-33.15A116.64,116.64,0,0,0,947.19,319.14Z"/><path class="cls-3" d="M0,235.52l171.57,6.26c3,16.77,5.77,32.08,9,50L76.27,281.25c2.33,8.18,4,14,5.84,20.48l91.53,9.88c2.83,10.32,5.41,19.76,8.68,31.73l-94.58-4.57v30.78H201.45c-1.72,18.08-3.13,32.86-4.69,49.34H12.17C17.66,358.2,28.87,296.56,0,235.52Z"/><path class="cls-3" d="M731.07,419.35c-9.22-24-19-49.36-29-75.55H682.2v76.56H627.44c8.83-63-.37-124.53-20.66-186.53,30.94-2.65,57.94-5.34,85-7.14,15.1-1,30.36-1.53,45.42-.53,23.32,1.55,39.5,14.28,45.89,36.69,6.69,23.46,1.22,44.62-17.22,61.54-3.05,2.8-6.56,5.09-11.36,8.75,12.68,28.08,25.31,56.08,38.91,86.21ZM680.39,298.91c11.59,0,22.37.28,33.14-.09,9.7-.33,15.7-5.51,15.78-15.54.09-10.73-6.16-16.69-16.54-16.41-12.28.34-24.52,2.16-36.95,3.35,0,3.68-.32,5.72,0,7.63C677.25,284.88,678.86,291.87,680.39,298.91Z"/><path class="cls-3" d="M1108.39,346.9c1.3,23.33,2.5,45,3.8,68.47l-65.61-5.72c-3.79-63.13-7.53-125.58-11.39-189.95,7.54-1,13.46-2.62,19.36-2.53,37.18.58,74.43.57,111.51,3,11,.7,23.68,6.12,32,13.44,22.78,20,28.81,46.89,22.86,76-5.6,27.35-27.29,43.6-56.11,42.51C1147.06,351.36,1129.37,348.88,1108.39,346.9Zm-2.77-49.51c10,1,17.68,1.72,25.36,2.69,10.85,1.37,20-.06,22.58-12.92s-3.94-25.56-15.88-28.45c-10.39-2.52-21.26-3-34.29-4.72C1104.18,269.27,1104.85,282.48,1105.62,297.39Zm-70.43-77.69c7.54-1,9.51-2.53,19.36-2.53,37.19,0,74.43.57,111.51,3m-130.87-.42c5.35-1.63,9.51-2.53,19.36-2.53"/><path class="cls-3" d="M388,248.33c-1.46,31.63,9.83,57.61,20.62,83.76,11.32,27.42,12.61,55.84,8,85.92H367.16c-19-32.34-45.6-58.24-77.26-77.51v77.56H233.14c.72-8.33,1.26-16,2.07-23.69,2.91-27.66-1.38-54.17-11.4-80.1-8.5-22-15.22-44.56-14.12-69.79H261c18.87,41.73,55.24,65.3,95.24,90.17-5.66-16.72-11.25-30.13-14.61-44.07-3.25-13.49-4.2-27.54-6.28-42.25Z"/><path class="cls-3" d="M1220.78,221.82l79,7.76c14.61,23.15,28.82,45.68,44.44,70.46,14-22,27-42.46,40.79-64.19l73.5,4.26c-2.94,5.11-4.88,9.08-7.34,12.7-21.27,31.15-43,62-63.65,93.55-4.49,6.87-6.78,16.19-7.18,24.53-1,20.75-.33,41.59-.33,64.39l-64.77-3c-1.39-23.09-2-44.49-4.26-65.73a56,56,0,0,0-8.36-24.3c-23.45-35.35-47.77-70.13-71.76-105.13C1228,233,1225.26,228.69,1220.78,221.82Z"/><path class="cls-3" d="M549.61,419.15c-4.05.41-7.1,1-10.15,1-13,.1-26,0-41.43,0,2.46-42.69,3.21-83.54-19.51-122.12l-57.74,3.82-9.53-54,170.4-11.56c3.37,15.7,6.62,30.83,10.3,48l-55.8,7.77C553.86,333.77,554.94,375.92,549.61,419.15Z"/><path class="cls-3" d="M186.68,200.35v-71q0-13.16,1-27.05T189.83,79q1.14-9.45,1.43-12h-1.14L153.77,200.35H104.25L67.61,67.26H66.47q.28,2.58,1.57,11.88t2.44,23.18q1.14,13.89,1.14,27.05v71H13.52V3.43h89.3l29.77,113.63h1.14L163.21,3.43h86.15V200.35Z"/><path class="cls-3" d="M459.31,26q27.75,26.06,27.76,75.85t-27.76,75.85q-27.76,26.06-78.71,26T302,177.88q-27.63-25.89-27.62-76T302,25.9Q329.65,0,380.6,0T459.31,26ZM349.69,59.53q-10.6,12.31-10.59,33.2v18.32q0,20.89,10.59,33.2t30.91,12.31q20.31,0,31-12.31t10.74-33.2V92.73q0-20.88-10.74-33.2t-31-12.31Q360.28,47.22,349.69,59.53Z"/><path class="cls-3" d="M692.3,96.46q-9.74,14.6-28.34,21.46l43.79,82.43h-71l-34.92-71.84H578.38v71.84H515.13V3.43h120.5q21.17,0,36.2,8.16a54.76,54.76,0,0,1,22.61,22A62,62,0,0,1,702,63.83,57.61,57.61,0,0,1,692.3,96.46ZM632.48,53.52a17.17,17.17,0,0,0-12.6-5.15h-41.5V84.72h41.5a16.89,16.89,0,0,0,12.6-5.3,18,18,0,0,0,5.15-13A17.5,17.5,0,0,0,632.48,53.52Z"/><path class="cls-3" d="M869.75,200.35l-8.3-27.76h-69l-8.3,27.76H719.49L791.33,3.43h73.56l71.84,196.92Zm-64.11-71.84h42.65L827.68,58.39h-1.15Z"/><path class="cls-3" d="M960.48,3.43h63.26V150h101v50.37H960.48Z"/></g></g></g></svg>